<svg width="20" height="36" viewBox="0 0 20 36" fill="none" xmlns="http://www.w3.org/2000/svg">
<path fill-rule="evenodd" clip-rule="evenodd" d="M12.8271 7.41214C13.3991 6.09181 13.7 5.39748 13.7 4.36083C13.7 1.95241 11.6852 0 9.19995 0C6.71467 0 4.69995 1.95241 4.69995 4.36083C4.69995 5.44219 5.00858 6.17911 5.61743 7.63289C6.36463 9.41699 7.56397 12.2807 9.19995 18.1856C10.8382 12.0025 12.0701 9.15927 12.8271 7.41214ZM9.15356 5.19588C9.92221 5.19588 10.5453 4.57277 10.5453 3.80412C10.5453 3.03548 9.92221 2.41237 9.15356 2.41237C8.38491 2.41237 7.76181 3.03548 7.76181 3.80412C7.76181 4.57277 8.38491 5.19588 9.15356 5.19588Z" fill="#FF0000"/>
<path fill-rule="evenodd" clip-rule="evenodd" d="M0.872887 27.7734C0.300827 29.0937 1.86265e-07 29.7881 1.86265e-07 30.8247C1.86265e-07 33.2331 2.01472 35.1855 4.5 35.1855C6.98528 35.1855 9 33.2331 9 30.8247C9 29.7434 8.69137 29.0064 8.08252 27.5527C7.33532 25.7686 6.13598 22.9048 4.5 17C2.86176 23.183 1.62986 26.0263 0.872887 27.7734ZM4.54639 29.9897C3.77775 29.9897 3.15464 30.6128 3.15464 31.3814C3.15464 32.1501 3.77775 32.7732 4.54639 32.7732C5.31504 32.7732 5.93814 32.1501 5.93814 31.3814C5.93814 30.6128 5.31504 29.9897 4.54639 29.9897Z" fill="#00EF18"/>
<path fill-rule="evenodd" clip-rule="evenodd" d="M11.8729 20.7734C11.3008 22.0937 11 22.7881 11 23.8247C11 26.2331 13.0147 28.1855 15.5 28.1855C17.9853 28.1855 20 26.2331 20 23.8247C20 22.7434 19.6914 22.0064 19.0825 20.5527C18.3353 18.7686 17.136 15.9048 15.5 9.99998C13.8618 16.183 12.6299 19.0263 11.8729 20.7734ZM15.5464 22.9897C14.7777 22.9897 14.1546 23.6128 14.1546 24.3814C14.1546 25.1501 14.7777 25.7732 15.5464 25.7732C16.315 25.7732 16.9381 25.1501 16.9381 24.3814C16.9381 23.6128 16.315 22.9897 15.5464 22.9897Z" fill="#001AFF"/>
</svg>
