<svg width="97" height="196" viewBox="0 0 97 196" fill="none" xmlns="http://www.w3.org/2000/svg">
<path fill-rule="evenodd" clip-rule="evenodd" d="M87.5922 79.8864C93.7578 65.6561 97 58.1729 97 47C97 21.0426 75.2858 0 48.5 0C21.7142 0 0 21.0426 0 47C0 58.6547 3.32629 66.597 9.88843 82.2656C17.9415 101.494 30.8678 132.359 48.5 196C66.1566 129.361 79.4337 98.7166 87.5922 79.8864ZM48 56C56.2843 56 63 49.2843 63 41C63 32.7157 56.2843 26 48 26C39.7157 26 33 32.7157 33 41C33 49.2843 39.7157 56 48 56Z" fill="black"/>
</svg>
